<?xml version="1.0" encoding="UTF-8" standalone="no"?>
<!DOCTYPE svg PUBLIC "-//W3C//DTD SVG 1.1//EN"
 "http://www.w3.org/Graphics/SVG/1.1/DTD/svg11.dtd">
<!-- Generated by graphviz version 12.2.1 (0)
 -->
<!-- Pages: 1 -->
<svg width="145pt" height="504pt"
 viewBox="0.00 0.00 144.94 504.00" xmlns="http://www.w3.org/2000/svg" xmlns:xlink="http://www.w3.org/1999/xlink">
<g id="graph0" class="graph" transform="scale(0.230358 0.230358) rotate(0) translate(4 2183.9)">
<polygon fill="white" stroke="none" points="-4,4 -4,-2183.9 625.19,-2183.9 625.19,4 -4,4"/>
<!-- start -->
<g id="node1" class="node">
<title>start</title>
</g>
<!-- q0 -->
<g id="node2" class="node">
<title>q0</title>
<ellipse fill="none" stroke="black" cx="111.13" cy="-951.64" rx="20.13" ry="20.13"/>
<text text-anchor="middle" x="111.13" y="-946.59" font-family="Times,serif" font-size="14.00">q0</text>
</g>
<!-- start&#45;&gt;q0 -->
<g id="edge1" class="edge">
<title>start&#45;&gt;q0</title>
<path fill="none" stroke="black" d="M53.99,-951.64C62.04,-951.64 70.98,-951.64 79.33,-951.64"/>
<polygon fill="black" stroke="black" points="79.05,-955.14 89.05,-951.64 79.05,-948.14 79.05,-955.14"/>
</g>
<!-- q1 -->
<g id="node3" class="node">
<title>q1</title>
<ellipse fill="none" stroke="black" cx="373.75" cy="-2128.64" rx="47.26" ry="47.26"/>
<ellipse fill="none" stroke="black" cx="373.75" cy="-2128.64" rx="51.26" ry="51.26"/>
<text text-anchor="middle" x="373.75" y="-2123.59" font-family="Times,serif" font-size="14.00">EQUALS</text>
</g>
<!-- q0&#45;&gt;q1 -->
<g id="edge2" class="edge">
<title>q0&#45;&gt;q1</title>
<path fill="none" stroke="black" d="M112.24,-972.07C113.08,-1116.33 119.32,-1977.06 149.26,-2022.64 185.59,-2077.93 259.12,-2105.06 311.93,-2117.9"/>
<polygon fill="black" stroke="black" points="310.85,-2121.25 321.38,-2120.09 312.43,-2114.43 310.85,-2121.25"/>
<text text-anchor="middle" x="216.39" y="-2111.44" font-family="Times,serif" font-size="14.00">=</text>
</g>
<!-- q2 -->
<g id="node4" class="node">
<title>q2</title>
<ellipse fill="none" stroke="black" cx="373.75" cy="-2021.64" rx="33.44" ry="33.44"/>
<ellipse fill="none" stroke="black" cx="373.75" cy="-2021.64" rx="37.44" ry="37.44"/>
<text text-anchor="middle" x="373.75" y="-2016.59" font-family="Times,serif" font-size="14.00">PLUS</text>
</g>
<!-- q0&#45;&gt;q2 -->
<g id="edge3" class="edge">
<title>q0&#45;&gt;q2</title>
<path fill="none" stroke="black" d="M112.31,-972.23C113.6,-1108.63 122.06,-1877.9 149.26,-1918.64 188.93,-1978.06 272.14,-2003.8 325.08,-2014.51"/>
<polygon fill="black" stroke="black" points="324.25,-2017.92 334.73,-2016.35 325.56,-2011.04 324.25,-2017.92"/>
<text text-anchor="middle" x="216.39" y="-2005.67" font-family="Times,serif" font-size="14.00">\+</text>
</g>
<!-- q3 -->
<g id="node5" class="node">
<title>q3</title>
<ellipse fill="none" stroke="black" cx="373.75" cy="-1920.64" rx="41.12" ry="41.12"/>
<ellipse fill="none" stroke="black" cx="373.75" cy="-1920.64" rx="45.12" ry="45.12"/>
<text text-anchor="middle" x="373.75" y="-1915.59" font-family="Times,serif" font-size="14.00">MINUS</text>
</g>
<!-- q0&#45;&gt;q3 -->
<g id="edge4" class="edge">
<title>q0&#45;&gt;q3</title>
<path fill="none" stroke="black" d="M112.43,-971.9C114.35,-1098.18 125.69,-1773.39 149.26,-1809.64 187.07,-1867.79 265.01,-1896.63 318.09,-1910.07"/>
<polygon fill="black" stroke="black" points="317,-1913.4 327.55,-1912.35 318.65,-1906.6 317,-1913.4"/>
<text text-anchor="middle" x="216.39" y="-1901.22" font-family="Times,serif" font-size="14.00">&#45;</text>
</g>
<!-- q4 -->
<g id="node6" class="node">
<title>q4</title>
<ellipse fill="none" stroke="black" cx="373.75" cy="-1814.64" rx="39.07" ry="39.07"/>
<ellipse fill="none" stroke="black" cx="373.75" cy="-1814.64" rx="43.07" ry="43.07"/>
<text text-anchor="middle" x="373.75" y="-1809.59" font-family="Times,serif" font-size="14.00">TIMES</text>
</g>
<!-- q0&#45;&gt;q4 -->
<g id="edge5" class="edge">
<title>q0&#45;&gt;q4</title>
<path fill="none" stroke="black" d="M111.95,-971.95C111.12,-1085.12 109.17,-1634.97 149.26,-1697.64 187.6,-1757.57 267.27,-1788.56 320.39,-1803.2"/>
<polygon fill="black" stroke="black" points="319.27,-1806.52 329.83,-1805.69 321.05,-1799.75 319.27,-1806.52"/>
<text text-anchor="middle" x="216.39" y="-1792.61" font-family="Times,serif" font-size="14.00">\*</text>
</g>
<!-- q5 -->
<g id="node7" class="node">
<title>q5</title>
<ellipse fill="none" stroke="black" cx="373.75" cy="-1706.64" rx="42.65" ry="42.65"/>
<ellipse fill="none" stroke="black" cx="373.75" cy="-1706.64" rx="46.65" ry="46.65"/>
<text text-anchor="middle" x="373.75" y="-1701.59" font-family="Times,serif" font-size="14.00">DIVIDE</text>
</g>
<!-- q0&#45;&gt;q5 -->
<g id="edge6" class="edge">
<title>q0&#45;&gt;q5</title>
<path fill="none" stroke="black" d="M112.2,-971.93C112.68,-1073.73 116.66,-1526.05 149.26,-1578.64 186.76,-1639.14 264.03,-1673.89 317.12,-1691.52"/>
<polygon fill="black" stroke="black" points="316.03,-1694.85 326.62,-1694.57 318.16,-1688.18 316.03,-1694.85"/>
<text text-anchor="middle" x="216.39" y="-1679.89" font-family="Times,serif" font-size="14.00">/</text>
</g>
<!-- q6 -->
<g id="node8" class="node">
<title>q6</title>
<ellipse fill="none" stroke="black" cx="373.75" cy="-1591.64" rx="46.75" ry="46.75"/>
<ellipse fill="none" stroke="black" cx="373.75" cy="-1591.64" rx="50.75" ry="50.75"/>
<text text-anchor="middle" x="373.75" y="-1586.59" font-family="Times,serif" font-size="14.00">LPAREN</text>
</g>
<!-- q0&#45;&gt;q6 -->
<g id="edge7" class="edge">
<title>q0&#45;&gt;q6</title>
<path fill="none" stroke="black" d="M112.53,-971.97C114.44,-1061.1 123.57,-1414.78 149.26,-1456.64 186.3,-1517.01 261.38,-1553.97 314.26,-1573.62"/>
<polygon fill="black" stroke="black" points="312.84,-1576.82 323.43,-1576.92 315.21,-1570.24 312.84,-1576.82"/>
<text text-anchor="middle" x="216.39" y="-1561.81" font-family="Times,serif" font-size="14.00">\(</text>
</g>
<!-- q7 -->
<g id="node9" class="node">
<title>q7</title>
<ellipse fill="none" stroke="black" cx="373.75" cy="-1471.64" rx="47.26" ry="47.26"/>
<ellipse fill="none" stroke="black" cx="373.75" cy="-1471.64" rx="51.26" ry="51.26"/>
<text text-anchor="middle" x="373.75" y="-1466.59" font-family="Times,serif" font-size="14.00">RPAREN</text>
</g>
<!-- q0&#45;&gt;q7 -->
<g id="edge8" class="edge">
<title>q0&#45;&gt;q7</title>
<path fill="none" stroke="black" d="M111.81,-972.12C111.05,-1042.09 111.58,-1270.77 149.26,-1331.64 186.8,-1392.28 261.4,-1430.96 314.06,-1451.95"/>
<polygon fill="black" stroke="black" points="312.62,-1455.14 323.21,-1455.49 315.14,-1448.62 312.62,-1455.14"/>
<text text-anchor="middle" x="216.39" y="-1439.45" font-family="Times,serif" font-size="14.00">\)</text>
</g>
<!-- q8 -->
<g id="node10" class="node">
<title>q8</title>
<ellipse fill="none" stroke="black" cx="373.75" cy="-1350.64" rx="47.26" ry="47.26"/>
<ellipse fill="none" stroke="black" cx="373.75" cy="-1350.64" rx="51.26" ry="51.26"/>
<text text-anchor="middle" x="373.75" y="-1345.59" font-family="Times,serif" font-size="14.00">LBRACE</text>
</g>
<!-- q0&#45;&gt;q8 -->
<g id="edge9" class="edge">
<title>q0&#45;&gt;q8</title>
<path fill="none" stroke="black" d="M113.06,-972.16C115.76,-1024.85 125.06,-1163.47 149.26,-1201.64 188.28,-1263.17 262.91,-1305.1 315.16,-1328.43"/>
<polygon fill="black" stroke="black" points="313.67,-1331.6 324.23,-1332.38 316.46,-1325.18 313.67,-1331.6"/>
<text text-anchor="middle" x="216.39" y="-1314.13" font-family="Times,serif" font-size="14.00">\{</text>
</g>
<!-- q9 -->
<g id="node11" class="node">
<title>q9</title>
<ellipse fill="none" stroke="black" cx="373.75" cy="-1229.64" rx="47.77" ry="47.77"/>
<ellipse fill="none" stroke="black" cx="373.75" cy="-1229.64" rx="51.77" ry="51.77"/>
<text text-anchor="middle" x="373.75" y="-1224.59" font-family="Times,serif" font-size="14.00">RBRACE</text>
</g>
<!-- q0&#45;&gt;q9 -->
<g id="edge10" class="edge">
<title>q0&#45;&gt;q9</title>
<path fill="none" stroke="black" d="M114.98,-971.52C119.18,-995.29 128.86,-1035.42 149.26,-1063.64 193.47,-1124.78 266.86,-1173.08 317.4,-1201.46"/>
<polygon fill="black" stroke="black" points="315.42,-1204.37 325.87,-1206.14 318.81,-1198.24 315.42,-1204.37"/>
<text text-anchor="middle" x="216.39" y="-1183.91" font-family="Times,serif" font-size="14.00">\}</text>
</g>
<!-- q10 -->
<g id="node12" class="node">
<title>q10</title>
<ellipse fill="none" stroke="black" cx="373.75" cy="-1090.64" rx="65.17" ry="65.17"/>
<ellipse fill="none" stroke="black" cx="373.75" cy="-1090.64" rx="69.17" ry="69.17"/>
<text text-anchor="middle" x="373.75" y="-1085.59" font-family="Times,serif" font-size="14.00">SEMICOLON</text>
</g>
<!-- q0&#45;&gt;q10 -->
<g id="edge11" class="edge">
<title>q0&#45;&gt;q10</title>
<path fill="none" stroke="black" d="M129.08,-961.36C135.39,-964.95 142.63,-969.02 149.26,-972.64 199.98,-1000.37 257.68,-1030.81 301.75,-1053.82"/>
<polygon fill="black" stroke="black" points="299.97,-1056.84 310.45,-1058.36 303.2,-1050.63 299.97,-1056.84"/>
<text text-anchor="middle" x="216.39" y="-1046.58" font-family="Times,serif" font-size="14.00">;</text>
</g>
<!-- q11 -->
<g id="node13" class="node">
<title>q11</title>
<ellipse fill="none" stroke="black" cx="373.75" cy="-951.64" rx="47.77" ry="47.77"/>
<ellipse fill="none" stroke="black" cx="373.75" cy="-951.64" rx="51.77" ry="51.77"/>
<text text-anchor="middle" x="373.75" y="-946.59" font-family="Times,serif" font-size="14.00">COMMA</text>
</g>
<!-- q0&#45;&gt;q11 -->
<g id="edge12" class="edge">
<title>q0&#45;&gt;q11</title>
<path fill="none" stroke="black" d="M131.72,-951.64C169.12,-951.64 252.14,-951.64 310.24,-951.64"/>
<polygon fill="black" stroke="black" points="309.99,-955.14 319.99,-951.64 309.99,-948.14 309.99,-955.14"/>
<text text-anchor="middle" x="216.39" y="-954.84" font-family="Times,serif" font-size="14.00">,</text>
</g>
<!-- q12 -->
<g id="node14" class="node">
<title>q12</title>
<ellipse fill="none" stroke="black" cx="373.75" cy="-809.64" rx="68.24" ry="68.24"/>
<ellipse fill="none" stroke="black" cx="373.75" cy="-809.64" rx="72.24" ry="72.24"/>
<text text-anchor="middle" x="373.75" y="-804.59" font-family="Times,serif" font-size="14.00">AMPERSAND</text>
</g>
<!-- q0&#45;&gt;q12 -->
<g id="edge13" class="edge">
<title>q0&#45;&gt;q12</title>
<path fill="none" stroke="black" d="M129.12,-942.23C135.44,-938.74 142.68,-934.75 149.26,-931.14 199.39,-903.68 255.95,-872.93 299.63,-849.24"/>
<polygon fill="black" stroke="black" points="301.14,-852.4 308.26,-844.56 297.81,-846.25 301.14,-852.4"/>
<text text-anchor="middle" x="216.39" y="-934.34" font-family="Times,serif" font-size="14.00">&amp;</text>
</g>
<!-- q13 -->
<g id="node15" class="node">
<title>q13</title>
<ellipse fill="none" stroke="black" cx="373.75" cy="-692.64" rx="23.2" ry="23.2"/>
<ellipse fill="none" stroke="black" cx="373.75" cy="-692.64" rx="27.2" ry="27.2"/>
<text text-anchor="middle" x="373.75" y="-687.59" font-family="Times,serif" font-size="14.00">GT</text>
</g>
<!-- q0&#45;&gt;q13 -->
<g id="edge14" class="edge">
<title>q0&#45;&gt;q13</title>
<path fill="none" stroke="black" d="M114.84,-931.45C118.9,-907.3 128.45,-866.59 149.26,-838.14 198.07,-771.45 287.47,-727.02 337.13,-706.24"/>
<polygon fill="black" stroke="black" points="338.34,-709.52 346.27,-702.5 335.69,-703.04 338.34,-709.52"/>
<text text-anchor="middle" x="216.39" y="-841.34" font-family="Times,serif" font-size="14.00">&gt;</text>
</g>
<!-- q14 -->
<g id="node16" class="node">
<title>q14</title>
<ellipse fill="none" stroke="black" cx="373.75" cy="-621.64" rx="22.18" ry="22.18"/>
<ellipse fill="none" stroke="black" cx="373.75" cy="-621.64" rx="26.18" ry="26.18"/>
<text text-anchor="middle" x="373.75" y="-616.59" font-family="Times,serif" font-size="14.00">LT</text>
</g>
<!-- q0&#45;&gt;q14 -->
<g id="edge15" class="edge">
<title>q0&#45;&gt;q14</title>
<path fill="none" stroke="black" d="M112.76,-931.32C114.74,-879.84 122.42,-746.03 149.26,-712.14 195.46,-653.82 285.25,-632.86 335.83,-625.49"/>
<polygon fill="black" stroke="black" points="336.24,-628.97 345.69,-624.17 335.31,-622.03 336.24,-628.97"/>
<text text-anchor="middle" x="216.39" y="-715.34" font-family="Times,serif" font-size="14.00">&lt;</text>
</g>
<!-- q15 -->
<g id="node17" class="node">
<title>q15</title>
<ellipse fill="none" stroke="black" cx="373.75" cy="-550.64" rx="23.2" ry="23.2"/>
<ellipse fill="none" stroke="black" cx="373.75" cy="-550.64" rx="27.2" ry="27.2"/>
<text text-anchor="middle" x="373.75" y="-545.59" font-family="Times,serif" font-size="14.00">GE</text>
</g>
<!-- q0&#45;&gt;q15 -->
<g id="edge16" class="edge">
<title>q0&#45;&gt;q15</title>
<path fill="none" stroke="black" d="M113.08,-931.41C116.47,-862.57 128.93,-640.39 149.26,-616.14 195.09,-561.51 283.84,-551.07 334.63,-549.85"/>
<polygon fill="black" stroke="black" points="334.6,-553.35 344.56,-549.74 334.52,-546.36 334.6,-553.35"/>
<text text-anchor="middle" x="216.39" y="-619.34" font-family="Times,serif" font-size="14.00">&gt;=</text>
</g>
<!-- q16 -->
<g id="node18" class="node">
<title>q16</title>
<ellipse fill="none" stroke="black" cx="373.75" cy="-479.64" rx="22.18" ry="22.18"/>
<ellipse fill="none" stroke="black" cx="373.75" cy="-479.64" rx="26.18" ry="26.18"/>
<text text-anchor="middle" x="373.75" y="-474.59" font-family="Times,serif" font-size="14.00">LE</text>
</g>
<!-- q0&#45;&gt;q16 -->
<g id="edge17" class="edge">
<title>q0&#45;&gt;q16</title>
<path fill="none" stroke="black" d="M112.57,-931.27C114.48,-851.66 123.14,-564.53 149.26,-534.14 195.54,-480.31 285.3,-474.96 335.85,-476.72"/>
<polygon fill="black" stroke="black" points="335.54,-480.21 345.69,-477.18 335.87,-473.22 335.54,-480.21"/>
<text text-anchor="middle" x="216.39" y="-537.34" font-family="Times,serif" font-size="14.00">&lt;=</text>
</g>
<!-- q17 -->
<g id="node19" class="node">
<title>q17</title>
<ellipse fill="none" stroke="black" cx="373.75" cy="-408.64" rx="23.2" ry="23.2"/>
<ellipse fill="none" stroke="black" cx="373.75" cy="-408.64" rx="27.2" ry="27.2"/>
<text text-anchor="middle" x="373.75" y="-403.59" font-family="Times,serif" font-size="14.00">EQ</text>
</g>
<!-- q0&#45;&gt;q17 -->
<g id="edge18" class="edge">
<title>q0&#45;&gt;q17</title>
<path fill="none" stroke="black" d="M112.26,-931.26C112.99,-842.73 117.86,-494.38 149.26,-458.14 195.28,-405.03 284.35,-401.68 335.05,-404.68"/>
<polygon fill="black" stroke="black" points="334.72,-408.16 344.95,-405.39 335.23,-401.18 334.72,-408.16"/>
<text text-anchor="middle" x="216.39" y="-461.34" font-family="Times,serif" font-size="14.00">==</text>
</g>
<!-- q18 -->
<g id="node20" class="node">
<title>q18</title>
<ellipse fill="none" stroke="black" cx="373.75" cy="-336.64" rx="23.2" ry="23.2"/>
<ellipse fill="none" stroke="black" cx="373.75" cy="-336.64" rx="27.2" ry="27.2"/>
<text text-anchor="middle" x="373.75" y="-331.59" font-family="Times,serif" font-size="14.00">NE</text>
</g>
<!-- q0&#45;&gt;q18 -->
<g id="edge19" class="edge">
<title>q0&#45;&gt;q18</title>
<path fill="none" stroke="black" d="M112.04,-931.19C111.77,-834.5 112.84,-426.23 149.26,-384.14 195.16,-331.1 284.28,-328.67 335.01,-332.24"/>
<polygon fill="black" stroke="black" points="334.67,-335.73 344.93,-333.07 335.25,-328.75 334.67,-335.73"/>
<text text-anchor="middle" x="216.39" y="-387.34" font-family="Times,serif" font-size="14.00">!=</text>
</g>
<!-- q19 -->
<g id="node21" class="node">
<title>q19</title>
<ellipse fill="none" stroke="black" cx="373.75" cy="-236.64" rx="50.84" ry="50.84"/>
<ellipse fill="none" stroke="black" cx="373.75" cy="-236.64" rx="54.84" ry="54.84"/>
<text text-anchor="middle" x="373.75" y="-231.59" font-family="Times,serif" font-size="14.00">NUMBER</text>
</g>
<!-- q0&#45;&gt;q19 -->
<g id="edge20" class="edge">
<title>q0&#45;&gt;q19</title>
<path fill="none" stroke="black" d="M111.98,-931.12C111.36,-827.14 110.79,-361.39 149.26,-311.14 186.25,-262.84 255.71,-245.52 307.42,-239.48"/>
<polygon fill="black" stroke="black" points="307.73,-242.97 317.32,-238.45 307.01,-236 307.73,-242.97"/>
<text text-anchor="middle" x="216.39" y="-314.34" font-family="Times,serif" font-size="14.00">\d+(\.\d+)?</text>
</g>
<!-- q20 -->
<g id="node22" class="node">
<title>q20</title>
<ellipse fill="none" stroke="black" cx="373.75" cy="-115.64" rx="44.19" ry="44.19"/>
<ellipse fill="none" stroke="black" cx="373.75" cy="-115.64" rx="48.19" ry="48.19"/>
<text text-anchor="middle" x="373.75" y="-110.59" font-family="Times,serif" font-size="14.00">STRING</text>
</g>
<!-- q0&#45;&gt;q20 -->
<g id="edge21" class="edge">
<title>q0&#45;&gt;q20</title>
<path fill="none" stroke="black" d="M111.94,-931.06C111.08,-818.81 109.12,-283.52 149.26,-223.14 186.65,-166.91 262.11,-139.23 314.97,-126.22"/>
<polygon fill="black" stroke="black" points="315.47,-129.7 324.41,-124.01 313.87,-122.88 315.47,-129.7"/>
<text text-anchor="middle" x="216.39" y="-226.34" font-family="Times,serif" font-size="14.00">\</text>
</g>
<!-- q21 -->
<g id="node23" class="node">
<title>q21</title>
<ellipse fill="none" stroke="black" cx="373.75" cy="-24.64" rx="20.64" ry="20.64"/>
<ellipse fill="none" stroke="black" cx="373.75" cy="-24.64" rx="24.64" ry="24.64"/>
<text text-anchor="middle" x="373.75" y="-19.59" font-family="Times,serif" font-size="14.00">ID</text>
</g>
<!-- q0&#45;&gt;q21 -->
<g id="edge22" class="edge">
<title>q0&#45;&gt;q21</title>
<path fill="none" stroke="black" d="M112.42,-931.09C114.27,-805.95 125.08,-150.5 149.26,-116.14 192.92,-54.12 286.48,-34.06 337.61,-27.63"/>
<polygon fill="black" stroke="black" points="337.7,-31.15 347.24,-26.54 336.91,-24.19 337.7,-31.15"/>
<text text-anchor="middle" x="216.39" y="-119.34" font-family="Times,serif" font-size="14.00">[a&#45;zA&#45;Z_][a&#45;zA&#45;Z0&#45;9_]*</text>
</g>
<!-- q22 -->
<g id="node24" class="node">
<title>q22</title>
<ellipse fill="none" stroke="black" cx="570.34" cy="-2128.64" rx="46.85" ry="46.85"/>
<ellipse fill="none" stroke="black" cx="570.34" cy="-2128.64" rx="50.85" ry="50.85"/>
<text text-anchor="middle" x="570.34" y="-2131.84" font-family="Times,serif" font-size="14.00">Reserved</text>
<text text-anchor="middle" x="570.34" y="-2115.34" font-family="Times,serif" font-size="14.00">Words</text>
</g>
<!-- q1&#45;&gt;q22 -->
<g id="edge23" class="edge">
<title>q1&#45;&gt;q22</title>
<path fill="none" stroke="black" stroke-dasharray="5,2" d="M425.37,-2128.64C450.58,-2128.64 481.27,-2128.64 507.83,-2128.64"/>
<polygon fill="black" stroke="black" points="507.8,-2132.14 517.8,-2128.64 507.8,-2125.14 507.8,-2132.14"/>
<text text-anchor="middle" x="482.74" y="-2131.84" font-family="Times,serif" font-size="14.00">lookup</text>
</g>
</g>
</svg>
