<?xml version="1.0" encoding="UTF-8" standalone="no"?>
<!DOCTYPE svg PUBLIC "-//W3C//DTD SVG 1.1//EN"
 "http://www.w3.org/Graphics/SVG/1.1/DTD/svg11.dtd">
<!-- Generated by graphviz version 12.2.1 (0)
 -->
<!-- Pages: 1 -->
<svg width="142pt" height="360pt"
 viewBox="0.00 0.00 141.50 360.00" xmlns="http://www.w3.org/2000/svg" xmlns:xlink="http://www.w3.org/1999/xlink">
<g id="graph0" class="graph" transform="scale(0.159014 0.159014) rotate(0) translate(4 2259.95)">
<polygon fill="white" stroke="none" points="-4,4 -4,-2259.95 885.86,-2259.95 885.86,4 -4,4"/>
<!-- start -->
<g id="node1" class="node">
<title>start</title>
</g>
<!-- 0 -->
<g id="node2" class="node">
<title>0</title>
<ellipse fill="none" stroke="black" cx="111.13" cy="-1330.81" rx="20.13" ry="20.13"/>
<text text-anchor="middle" x="111.13" y="-1325.76" font-family="Times,serif" font-size="14.00">q0</text>
</g>
<!-- start&#45;&gt;0 -->
<g id="edge1" class="edge">
<title>start&#45;&gt;0</title>
<path fill="none" stroke="black" d="M53.99,-1330.81C62.04,-1330.81 70.98,-1330.81 79.33,-1330.81"/>
<polygon fill="black" stroke="black" points="79.05,-1334.31 89.05,-1330.81 79.05,-1327.31 79.05,-1334.31"/>
</g>
<!-- 1 -->
<g id="node3" class="node">
<title>1</title>
<ellipse fill="none" stroke="black" cx="314.82" cy="-2196.81" rx="20.64" ry="20.64"/>
<ellipse fill="none" stroke="black" cx="314.82" cy="-2196.81" rx="24.64" ry="24.64"/>
<text text-anchor="middle" x="314.82" y="-2191.76" font-family="Times,serif" font-size="14.00">ID</text>
</g>
<!-- 0&#45;&gt;1 -->
<g id="edge2" class="edge">
<title>0&#45;&gt;1</title>
<path fill="none" stroke="black" d="M112.55,-1351.29C114.87,-1461.81 126.97,-1984.58 149.26,-2052.81 167.58,-2108.88 175.7,-2127.28 222.01,-2163.81 238.56,-2176.86 260.72,-2185.02 279.12,-2189.96"/>
<polygon fill="black" stroke="black" points="278.27,-2193.36 288.82,-2192.34 279.94,-2186.56 278.27,-2193.36"/>
<text text-anchor="middle" x="176.64" y="-2150.64" font-family="Times,serif" font-size="14.00">[a&#45;zA&#45;Z_]</text>
</g>
<!-- 2 -->
<g id="node4" class="node">
<title>2</title>
<ellipse fill="none" stroke="black" cx="314.82" cy="-2089.81" rx="26.27" ry="26.27"/>
<ellipse fill="none" stroke="black" cx="314.82" cy="-2089.81" rx="30.27" ry="30.27"/>
<text text-anchor="middle" x="314.82" y="-2084.76" font-family="Times,serif" font-size="14.00">INT</text>
</g>
<!-- 0&#45;&gt;2 -->
<g id="edge4" class="edge">
<title>0&#45;&gt;2</title>
<path fill="none" stroke="black" d="M112.06,-1351.13C111.92,-1443.13 113.56,-1820.96 149.26,-1932.81 167.88,-1991.14 175.68,-2009.77 222.01,-2049.81 237.15,-2062.89 257.24,-2072.3 274.76,-2078.69"/>
<polygon fill="black" stroke="black" points="273.25,-2081.87 283.84,-2081.79 275.51,-2075.25 273.25,-2081.87"/>
<text text-anchor="middle" x="176.64" y="-2035.18" font-family="Times,serif" font-size="14.00">[0&#45;9]</text>
</g>
<!-- 5 -->
<g id="node7" class="node">
<title>5</title>
<ellipse fill="none" stroke="black" cx="314.82" cy="-1989.81" rx="47.26" ry="47.26"/>
<ellipse fill="none" stroke="black" cx="314.82" cy="-1989.81" rx="51.26" ry="51.26"/>
<text text-anchor="middle" x="314.82" y="-1984.76" font-family="Times,serif" font-size="14.00">EQUALS</text>
</g>
<!-- 0&#45;&gt;5 -->
<g id="edge9" class="edge">
<title>0&#45;&gt;5</title>
<path fill="none" stroke="black" d="M111.99,-1351.36C111.68,-1434.89 112.99,-1748.75 149.26,-1839.81 170.08,-1892.06 220.39,-1933.37 259.95,-1959.3"/>
<polygon fill="black" stroke="black" points="257.9,-1962.15 268.21,-1964.58 261.67,-1956.25 257.9,-1962.15"/>
<text text-anchor="middle" x="176.64" y="-1915.95" font-family="Times,serif" font-size="14.00">=</text>
</g>
<!-- 7 -->
<g id="node9" class="node">
<title>7</title>
<ellipse fill="none" stroke="black" cx="314.82" cy="-1882.81" rx="33.44" ry="33.44"/>
<ellipse fill="none" stroke="black" cx="314.82" cy="-1882.81" rx="37.44" ry="37.44"/>
<text text-anchor="middle" x="314.82" y="-1877.76" font-family="Times,serif" font-size="14.00">PLUS</text>
</g>
<!-- 0&#45;&gt;7 -->
<g id="edge11" class="edge">
<title>0&#45;&gt;7</title>
<path fill="none" stroke="black" d="M112.68,-1351.32C114.8,-1422.58 123.64,-1658.99 149.26,-1729.81 168.7,-1783.54 179.1,-1798.08 222.01,-1835.81 235.8,-1847.93 253.27,-1857.88 269.27,-1865.46"/>
<polygon fill="black" stroke="black" points="267.57,-1868.54 278.13,-1869.47 270.46,-1862.16 267.57,-1868.54"/>
<text text-anchor="middle" x="176.64" y="-1822.42" font-family="Times,serif" font-size="14.00">+</text>
</g>
<!-- 8 -->
<g id="node10" class="node">
<title>8</title>
<ellipse fill="none" stroke="black" cx="314.82" cy="-1781.81" rx="41.12" ry="41.12"/>
<ellipse fill="none" stroke="black" cx="314.82" cy="-1781.81" rx="45.12" ry="45.12"/>
<text text-anchor="middle" x="314.82" y="-1776.76" font-family="Times,serif" font-size="14.00">MINUS</text>
</g>
<!-- 0&#45;&gt;8 -->
<g id="edge12" class="edge">
<title>0&#45;&gt;8</title>
<path fill="none" stroke="black" d="M113.37,-1351.14C117.13,-1409.44 129.37,-1576.2 149.26,-1626.81 169.5,-1678.29 181.13,-1690.54 222.01,-1727.81 234.34,-1739.04 249.37,-1749.06 263.68,-1757.33"/>
<polygon fill="black" stroke="black" points="261.67,-1760.22 272.1,-1762.03 265.08,-1754.1 261.67,-1760.22"/>
<text text-anchor="middle" x="176.64" y="-1712.94" font-family="Times,serif" font-size="14.00">&#45;</text>
</g>
<!-- 9 -->
<g id="node11" class="node">
<title>9</title>
<ellipse fill="none" stroke="black" cx="314.82" cy="-1675.81" rx="39.07" ry="39.07"/>
<ellipse fill="none" stroke="black" cx="314.82" cy="-1675.81" rx="43.07" ry="43.07"/>
<text text-anchor="middle" x="314.82" y="-1670.76" font-family="Times,serif" font-size="14.00">TIMES</text>
</g>
<!-- 0&#45;&gt;9 -->
<g id="edge13" class="edge">
<title>0&#45;&gt;9</title>
<path fill="none" stroke="black" d="M112.92,-1351.28C114.99,-1388.12 122.46,-1467.36 149.26,-1527.81 170.96,-1576.75 181.72,-1588.56 222.01,-1623.81 234.89,-1635.08 250.6,-1645.05 265.36,-1653.17"/>
<polygon fill="black" stroke="black" points="263.56,-1656.18 274.04,-1657.78 266.85,-1650 263.56,-1656.18"/>
<text text-anchor="middle" x="176.64" y="-1609.9" font-family="Times,serif" font-size="14.00">*</text>
</g>
<!-- 10 -->
<g id="node12" class="node">
<title>10</title>
<ellipse fill="none" stroke="black" cx="314.82" cy="-1567.81" rx="42.65" ry="42.65"/>
<ellipse fill="none" stroke="black" cx="314.82" cy="-1567.81" rx="46.65" ry="46.65"/>
<text text-anchor="middle" x="314.82" y="-1562.76" font-family="Times,serif" font-size="14.00">DIVIDE</text>
</g>
<!-- 0&#45;&gt;10 -->
<g id="edge14" class="edge">
<title>0&#45;&gt;10</title>
<path fill="none" stroke="black" d="M114.57,-1350.94C118.44,-1376.49 127.88,-1421.03 149.26,-1452.81 176.92,-1493.91 224.6,-1524.82 261.53,-1544.19"/>
<polygon fill="black" stroke="black" points="259.79,-1547.23 270.29,-1548.65 262.97,-1540.99 259.79,-1547.23"/>
<text text-anchor="middle" x="176.64" y="-1510.24" font-family="Times,serif" font-size="14.00">/</text>
</g>
<!-- 11 -->
<g id="node13" class="node">
<title>11</title>
<ellipse fill="none" stroke="black" cx="314.82" cy="-1475.81" rx="23.2" ry="23.2"/>
<ellipse fill="none" stroke="black" cx="314.82" cy="-1475.81" rx="27.2" ry="27.2"/>
<text text-anchor="middle" x="314.82" y="-1470.76" font-family="Times,serif" font-size="14.00">GT</text>
</g>
<!-- 0&#45;&gt;11 -->
<g id="edge15" class="edge">
<title>0&#45;&gt;11</title>
<path fill="none" stroke="black" d="M120.3,-1349.12C126.81,-1362.32 136.88,-1380 149.26,-1392.81 185.13,-1429.92 241.14,-1453.22 277.66,-1465.37"/>
<polygon fill="black" stroke="black" points="276.29,-1468.61 286.88,-1468.33 278.43,-1461.95 276.29,-1468.61"/>
<text text-anchor="middle" x="176.64" y="-1435.08" font-family="Times,serif" font-size="14.00">&gt;</text>
</g>
<!-- 13 -->
<g id="node15" class="node">
<title>13</title>
<ellipse fill="none" stroke="black" cx="314.82" cy="-1404.81" rx="22.18" ry="22.18"/>
<ellipse fill="none" stroke="black" cx="314.82" cy="-1404.81" rx="26.18" ry="26.18"/>
<text text-anchor="middle" x="314.82" y="-1399.76" font-family="Times,serif" font-size="14.00">LT</text>
</g>
<!-- 0&#45;&gt;13 -->
<g id="edge17" class="edge">
<title>0&#45;&gt;13</title>
<path fill="none" stroke="black" d="M128.76,-1341.17C135.04,-1344.83 142.34,-1348.77 149.26,-1351.81 192.36,-1370.7 244.39,-1386.33 278.24,-1395.61"/>
<polygon fill="black" stroke="black" points="276.96,-1398.89 287.53,-1398.11 278.78,-1392.13 276.96,-1398.89"/>
<text text-anchor="middle" x="176.64" y="-1375.53" font-family="Times,serif" font-size="14.00">&lt;</text>
</g>
<!-- 15 -->
<g id="node17" class="node">
<title>15</title>
<ellipse fill="none" stroke="black" cx="314.82" cy="-1330.81" rx="29.86" ry="29.86"/>
<text text-anchor="middle" x="314.82" y="-1325.76" font-family="Times,serif" font-size="14.00">NOT</text>
</g>
<!-- 0&#45;&gt;15 -->
<g id="edge19" class="edge">
<title>0&#45;&gt;15</title>
<path fill="none" stroke="black" d="M131.47,-1330.81C163.91,-1330.81 229.98,-1330.81 273.04,-1330.81"/>
<polygon fill="black" stroke="black" points="273.02,-1334.31 283.02,-1330.81 273.02,-1327.31 273.02,-1334.31"/>
<text text-anchor="middle" x="176.64" y="-1334.01" font-family="Times,serif" font-size="14.00">!</text>
</g>
<!-- 17 -->
<g id="node19" class="node">
<title>17</title>
<ellipse fill="none" stroke="black" cx="314.82" cy="-1231.81" rx="46.75" ry="46.75"/>
<ellipse fill="none" stroke="black" cx="314.82" cy="-1231.81" rx="50.75" ry="50.75"/>
<text text-anchor="middle" x="314.82" y="-1226.76" font-family="Times,serif" font-size="14.00">LPAREN</text>
</g>
<!-- 0&#45;&gt;17 -->
<g id="edge21" class="edge">
<title>0&#45;&gt;17</title>
<path fill="none" stroke="black" d="M129.02,-1321.21C135.33,-1317.69 142.58,-1313.74 149.26,-1310.31 185.08,-1291.9 225.94,-1272.4 257.99,-1257.44"/>
<polygon fill="black" stroke="black" points="259.1,-1260.78 266.69,-1253.39 256.15,-1254.43 259.1,-1260.78"/>
<text text-anchor="middle" x="176.64" y="-1313.51" font-family="Times,serif" font-size="14.00">(</text>
</g>
<!-- 18 -->
<g id="node20" class="node">
<title>18</title>
<ellipse fill="none" stroke="black" cx="314.82" cy="-1111.81" rx="47.26" ry="47.26"/>
<ellipse fill="none" stroke="black" cx="314.82" cy="-1111.81" rx="51.26" ry="51.26"/>
<text text-anchor="middle" x="314.82" y="-1106.76" font-family="Times,serif" font-size="14.00">RPAREN</text>
</g>
<!-- 0&#45;&gt;18 -->
<g id="edge22" class="edge">
<title>0&#45;&gt;18</title>
<path fill="none" stroke="black" d="M120.96,-1312.85C128.03,-1298.96 138.52,-1279.45 149.26,-1263.31 178.05,-1220.06 183.61,-1206.8 222.01,-1171.81 233.56,-1161.28 247.15,-1151.34 260.27,-1142.68"/>
<polygon fill="black" stroke="black" points="261.91,-1145.79 268.43,-1137.44 258.13,-1139.9 261.91,-1145.79"/>
<text text-anchor="middle" x="176.64" y="-1266.51" font-family="Times,serif" font-size="14.00">)</text>
</g>
<!-- 19 -->
<g id="node21" class="node">
<title>19</title>
<ellipse fill="none" stroke="black" cx="314.82" cy="-990.81" rx="47.26" ry="47.26"/>
<ellipse fill="none" stroke="black" cx="314.82" cy="-990.81" rx="51.26" ry="51.26"/>
<text text-anchor="middle" x="314.82" y="-985.76" font-family="Times,serif" font-size="14.00">LBRACE</text>
</g>
<!-- 0&#45;&gt;19 -->
<g id="edge23" class="edge">
<title>0&#45;&gt;19</title>
<path fill="none" stroke="black" d="M114.66,-1310.66C119.03,-1279.61 129.47,-1218.6 149.26,-1170.31 172.7,-1113.12 179.1,-1096.28 222.01,-1051.81 233.02,-1040.39 246.53,-1029.98 259.76,-1021.11"/>
<polygon fill="black" stroke="black" points="261.54,-1024.12 268.03,-1015.75 257.74,-1018.25 261.54,-1024.12"/>
<text text-anchor="middle" x="176.64" y="-1173.51" font-family="Times,serif" font-size="14.00">{</text>
</g>
<!-- 20 -->
<g id="node22" class="node">
<title>20</title>
<ellipse fill="none" stroke="black" cx="314.82" cy="-869.81" rx="47.77" ry="47.77"/>
<ellipse fill="none" stroke="black" cx="314.82" cy="-869.81" rx="51.77" ry="51.77"/>
<text text-anchor="middle" x="314.82" y="-864.76" font-family="Times,serif" font-size="14.00">RBRACE</text>
</g>
<!-- 0&#45;&gt;20 -->
<g id="edge24" class="edge">
<title>0&#45;&gt;20</title>
<path fill="none" stroke="black" d="M112.02,-1310.5C112.37,-1263.5 116.67,-1144.14 149.26,-1051.31 169.98,-992.28 178.74,-975.99 222.01,-930.81 232.88,-919.46 246.21,-909.12 259.32,-900.31"/>
<polygon fill="black" stroke="black" points="261.03,-903.37 267.51,-894.99 257.21,-897.5 261.03,-903.37"/>
<text text-anchor="middle" x="176.64" y="-1054.51" font-family="Times,serif" font-size="14.00">}</text>
</g>
<!-- 21 -->
<g id="node23" class="node">
<title>21</title>
<ellipse fill="none" stroke="black" cx="314.82" cy="-730.81" rx="65.17" ry="65.17"/>
<ellipse fill="none" stroke="black" cx="314.82" cy="-730.81" rx="69.17" ry="69.17"/>
<text text-anchor="middle" x="314.82" y="-725.76" font-family="Times,serif" font-size="14.00">SEMICOLON</text>
</g>
<!-- 0&#45;&gt;21 -->
<g id="edge25" class="edge">
<title>0&#45;&gt;21</title>
<path fill="none" stroke="black" d="M112.83,-1310.28C115.46,-1238.92 125.77,-1002.16 149.26,-930.31 168.82,-870.48 181.32,-856.82 222.01,-808.81 230.57,-798.71 240.51,-788.84 250.62,-779.7"/>
<polygon fill="black" stroke="black" points="252.8,-782.44 257.99,-773.21 248.17,-777.19 252.8,-782.44"/>
<text text-anchor="middle" x="176.64" y="-933.51" font-family="Times,serif" font-size="14.00">;</text>
</g>
<!-- 22 -->
<g id="node24" class="node">
<title>22</title>
<ellipse fill="none" stroke="black" cx="314.82" cy="-591.81" rx="47.77" ry="47.77"/>
<ellipse fill="none" stroke="black" cx="314.82" cy="-591.81" rx="51.77" ry="51.77"/>
<text text-anchor="middle" x="314.82" y="-586.76" font-family="Times,serif" font-size="14.00">COMMA</text>
</g>
<!-- 0&#45;&gt;22 -->
<g id="edge26" class="edge">
<title>0&#45;&gt;22</title>
<path fill="none" stroke="black" d="M112.62,-1310.33C114.77,-1226.37 124.41,-908.32 149.26,-811.31 168.5,-736.22 171.65,-711.72 222.01,-652.81 232.32,-640.75 245.57,-630.11 258.79,-621.23"/>
<polygon fill="black" stroke="black" points="260.57,-624.24 267.09,-615.89 256.79,-618.35 260.57,-624.24"/>
<text text-anchor="middle" x="176.64" y="-814.51" font-family="Times,serif" font-size="14.00">,</text>
</g>
<!-- 23 -->
<g id="node25" class="node">
<title>23</title>
<ellipse fill="none" stroke="black" cx="314.82" cy="-449.81" rx="68.24" ry="68.24"/>
<ellipse fill="none" stroke="black" cx="314.82" cy="-449.81" rx="72.24" ry="72.24"/>
<text text-anchor="middle" x="314.82" y="-444.76" font-family="Times,serif" font-size="14.00">AMPERSAND</text>
</g>
<!-- 0&#45;&gt;23 -->
<g id="edge27" class="edge">
<title>0&#45;&gt;23</title>
<path fill="none" stroke="black" d="M111.97,-1310.39C111.37,-1211.55 111.07,-782.41 149.26,-655.31 167.7,-593.93 181.3,-580.3 222.01,-530.81 230.24,-520.8 239.75,-510.97 249.47,-501.8"/>
<polygon fill="black" stroke="black" points="251.56,-504.63 256.55,-495.29 246.82,-499.48 251.56,-504.63"/>
<text text-anchor="middle" x="176.64" y="-658.51" font-family="Times,serif" font-size="14.00">&amp;</text>
</g>
<!-- 24 -->
<g id="node26" class="node">
<title>24</title>
<ellipse fill="none" stroke="black" cx="314.82" cy="-281.81" rx="77.97" ry="77.97"/>
<text text-anchor="middle" x="314.82" y="-276.76" font-family="Times,serif" font-size="14.00">STRING_START</text>
</g>
<!-- 0&#45;&gt;24 -->
<g id="edge28" class="edge">
<title>0&#45;&gt;24</title>
<path fill="none" stroke="black" d="M112.07,-1310.54C111.92,-1201.96 113.15,-688.29 149.26,-534.31 167.61,-456.08 175.77,-434.52 222.01,-368.81 229.15,-358.67 237.6,-348.77 246.44,-339.5"/>
<polygon fill="black" stroke="black" points="248.71,-342.18 253.23,-332.6 243.72,-337.27 248.71,-342.18"/>
<text text-anchor="middle" x="176.64" y="-537.51" font-family="Times,serif" font-size="14.00">&quot;</text>
</g>
<!-- 28 -->
<g id="node30" class="node">
<title>28</title>
<ellipse fill="none" stroke="black" cx="314.82" cy="-92.81" rx="92.81" ry="92.81"/>
<text text-anchor="middle" x="314.82" y="-87.76" font-family="Times,serif" font-size="14.00">COMMENT_START</text>
</g>
<!-- 0&#45;&gt;28 -->
<g id="edge35" class="edge">
<title>0&#45;&gt;28</title>
<path fill="none" stroke="black" d="M111.99,-1310.27C111.27,-1188.87 109.58,-564.28 149.26,-377.31 167.39,-291.89 175.92,-268.97 222.01,-194.81 227.81,-185.47 234.5,-176.19 241.58,-167.25"/>
<polygon fill="black" stroke="black" points="244.2,-169.56 247.8,-159.6 238.77,-165.15 244.2,-169.56"/>
<text text-anchor="middle" x="176.64" y="-380.51" font-family="Times,serif" font-size="14.00">/</text>
</g>
<!-- 1&#45;&gt;1 -->
<g id="edge3" class="edge">
<title>1&#45;&gt;1</title>
<path fill="none" stroke="black" d="M295.48,-2212.11C286.65,-2225.4 293.1,-2239.45 314.82,-2239.45 330.6,-2239.45 338.32,-2232.03 337.98,-2222.88"/>
<polygon fill="black" stroke="black" points="341.31,-2221.8 334.67,-2213.54 334.71,-2224.13 341.31,-2221.8"/>
<text text-anchor="middle" x="314.82" y="-2242.65" font-family="Times,serif" font-size="14.00">[a&#45;zA&#45;Z0&#45;9_]</text>
</g>
<!-- 2&#45;&gt;2 -->
<g id="edge5" class="edge">
<title>2&#45;&gt;2</title>
<path fill="none" stroke="black" d="M293.29,-2111.65C288.1,-2125.19 295.27,-2138.08 314.82,-2138.08 328.72,-2138.08 336.36,-2131.57 337.75,-2122.94"/>
<polygon fill="black" stroke="black" points="341.25,-2122.65 336.54,-2113.15 334.3,-2123.51 341.25,-2122.65"/>
<text text-anchor="middle" x="314.82" y="-2141.28" font-family="Times,serif" font-size="14.00">[0&#45;9]</text>
</g>
<!-- 3 -->
<g id="node5" class="node">
<title>3</title>
<ellipse fill="none" stroke="black" cx="560.91" cy="-2089.81" rx="29.86" ry="29.86"/>
<text text-anchor="middle" x="560.91" y="-2084.76" font-family="Times,serif" font-size="14.00">DOT</text>
</g>
<!-- 2&#45;&gt;3 -->
<g id="edge6" class="edge">
<title>2&#45;&gt;3</title>
<path fill="none" stroke="black" d="M345.26,-2089.81C388.72,-2089.81 470.18,-2089.81 519.3,-2089.81"/>
<polygon fill="black" stroke="black" points="519.23,-2093.31 529.23,-2089.81 519.23,-2086.31 519.23,-2093.31"/>
<text text-anchor="middle" x="438.38" y="-2093.01" font-family="Times,serif" font-size="14.00">.</text>
</g>
<!-- 4 -->
<g id="node6" class="node">
<title>4</title>
<ellipse fill="none" stroke="black" cx="798.78" cy="-2089.81" rx="39.58" ry="39.58"/>
<ellipse fill="none" stroke="black" cx="798.78" cy="-2089.81" rx="43.58" ry="43.58"/>
<text text-anchor="middle" x="798.78" y="-2084.76" font-family="Times,serif" font-size="14.00">FLOAT</text>
</g>
<!-- 3&#45;&gt;4 -->
<g id="edge7" class="edge">
<title>3&#45;&gt;4</title>
<path fill="none" stroke="black" d="M590.83,-2089.81C628.79,-2089.81 696.16,-2089.81 743.7,-2089.81"/>
<polygon fill="black" stroke="black" points="743.52,-2093.31 753.52,-2089.81 743.52,-2086.31 743.52,-2093.31"/>
<text text-anchor="middle" x="684.2" y="-2093.01" font-family="Times,serif" font-size="14.00">[0&#45;9]</text>
</g>
<!-- 4&#45;&gt;4 -->
<g id="edge8" class="edge">
<title>4&#45;&gt;4</title>
<path fill="none" stroke="black" d="M777.3,-2128.3C777.3,-2141.12 784.46,-2151.39 798.78,-2151.39 808.63,-2151.39 815.09,-2146.54 818.17,-2139.34"/>
<polygon fill="black" stroke="black" points="821.55,-2140.26 819.98,-2129.78 814.68,-2138.95 821.55,-2140.26"/>
<text text-anchor="middle" x="798.78" y="-2154.59" font-family="Times,serif" font-size="14.00">[0&#45;9]</text>
</g>
<!-- 6 -->
<g id="node8" class="node">
<title>6</title>
<ellipse fill="none" stroke="black" cx="560.91" cy="-1989.81" rx="23.2" ry="23.2"/>
<ellipse fill="none" stroke="black" cx="560.91" cy="-1989.81" rx="27.2" ry="27.2"/>
<text text-anchor="middle" x="560.91" y="-1984.76" font-family="Times,serif" font-size="14.00">EQ</text>
</g>
<!-- 5&#45;&gt;6 -->
<g id="edge10" class="edge">
<title>5&#45;&gt;6</title>
<path fill="none" stroke="black" d="M366.4,-1989.81C412.76,-1989.81 480.36,-1989.81 522.17,-1989.81"/>
<polygon fill="black" stroke="black" points="521.98,-1993.31 531.98,-1989.81 521.98,-1986.31 521.98,-1993.31"/>
<text text-anchor="middle" x="438.38" y="-1993.01" font-family="Times,serif" font-size="14.00">=</text>
</g>
<!-- 12 -->
<g id="node14" class="node">
<title>12</title>
<ellipse fill="none" stroke="black" cx="560.91" cy="-1475.81" rx="23.2" ry="23.2"/>
<ellipse fill="none" stroke="black" cx="560.91" cy="-1475.81" rx="27.2" ry="27.2"/>
<text text-anchor="middle" x="560.91" y="-1470.76" font-family="Times,serif" font-size="14.00">GE</text>
</g>
<!-- 11&#45;&gt;12 -->
<g id="edge16" class="edge">
<title>11&#45;&gt;12</title>
<path fill="none" stroke="black" d="M342.41,-1475.81C385.88,-1475.81 472.3,-1475.81 522.12,-1475.81"/>
<polygon fill="black" stroke="black" points="521.84,-1479.31 531.84,-1475.81 521.84,-1472.31 521.84,-1479.31"/>
<text text-anchor="middle" x="438.38" y="-1479.01" font-family="Times,serif" font-size="14.00">=</text>
</g>
<!-- 14 -->
<g id="node16" class="node">
<title>14</title>
<ellipse fill="none" stroke="black" cx="560.91" cy="-1404.81" rx="22.18" ry="22.18"/>
<ellipse fill="none" stroke="black" cx="560.91" cy="-1404.81" rx="26.18" ry="26.18"/>
<text text-anchor="middle" x="560.91" y="-1399.76" font-family="Times,serif" font-size="14.00">LE</text>
</g>
<!-- 13&#45;&gt;14 -->
<g id="edge18" class="edge">
<title>13&#45;&gt;14</title>
<path fill="none" stroke="black" d="M341.48,-1404.81C384.99,-1404.81 473.39,-1404.81 523.36,-1404.81"/>
<polygon fill="black" stroke="black" points="523.08,-1408.31 533.08,-1404.81 523.08,-1401.31 523.08,-1408.31"/>
<text text-anchor="middle" x="438.38" y="-1408.01" font-family="Times,serif" font-size="14.00">=</text>
</g>
<!-- 16 -->
<g id="node18" class="node">
<title>16</title>
<ellipse fill="none" stroke="black" cx="560.91" cy="-1330.81" rx="23.2" ry="23.2"/>
<ellipse fill="none" stroke="black" cx="560.91" cy="-1330.81" rx="27.2" ry="27.2"/>
<text text-anchor="middle" x="560.91" y="-1325.76" font-family="Times,serif" font-size="14.00">NE</text>
</g>
<!-- 15&#45;&gt;16 -->
<g id="edge20" class="edge">
<title>15&#45;&gt;16</title>
<path fill="none" stroke="black" d="M344.78,-1330.81C388.88,-1330.81 472.9,-1330.81 521.87,-1330.81"/>
<polygon fill="black" stroke="black" points="521.71,-1334.31 531.71,-1330.81 521.71,-1327.31 521.71,-1334.31"/>
<text text-anchor="middle" x="438.38" y="-1334.01" font-family="Times,serif" font-size="14.00">=</text>
</g>
<!-- 25 -->
<g id="node27" class="node">
<title>25</title>
<ellipse fill="none" stroke="black" cx="560.91" cy="-386.81" rx="91.78" ry="91.78"/>
<text text-anchor="middle" x="560.91" y="-381.76" font-family="Times,serif" font-size="14.00">STRING_CONTENT</text>
</g>
<!-- 24&#45;&gt;25 -->
<g id="edge29" class="edge">
<title>24&#45;&gt;25</title>
<path fill="none" stroke="black" d="M386.75,-312.32C411.48,-322.96 439.62,-335.06 465.93,-346.38"/>
<polygon fill="black" stroke="black" points="464.34,-349.5 474.91,-350.24 467.1,-343.07 464.34,-349.5"/>
<text text-anchor="middle" x="438.38" y="-340.66" font-family="Times,serif" font-size="14.00">[^&quot;\]</text>
</g>
<!-- 27 -->
<g id="node29" class="node">
<title>27</title>
<ellipse fill="none" stroke="black" cx="798.78" cy="-263.81" rx="44.19" ry="44.19"/>
<ellipse fill="none" stroke="black" cx="798.78" cy="-263.81" rx="48.19" ry="48.19"/>
<text text-anchor="middle" x="798.78" y="-258.76" font-family="Times,serif" font-size="14.00">STRING</text>
</g>
<!-- 24&#45;&gt;27 -->
<g id="edge34" class="edge">
<title>24&#45;&gt;27</title>
<path fill="none" stroke="black" d="M392.57,-274.57C417.02,-272.53 444.19,-270.53 469.13,-269.31 563.36,-264.68 672.95,-263.74 738.76,-263.65"/>
<polygon fill="black" stroke="black" points="738.61,-267.15 748.61,-263.64 738.61,-260.15 738.61,-267.15"/>
<text text-anchor="middle" x="560.91" y="-272.51" font-family="Times,serif" font-size="14.00">&quot;</text>
</g>
<!-- 25&#45;&gt;25 -->
<g id="edge30" class="edge">
<title>25&#45;&gt;25</title>
<path fill="none" stroke="black" d="M540.65,-476.83C544.11,-488.71 550.86,-496.59 560.91,-496.59 567.67,-496.59 572.93,-493.03 576.71,-487.1"/>
<polygon fill="black" stroke="black" points="579.79,-488.78 580.57,-478.22 573.37,-485.99 579.79,-488.78"/>
<text text-anchor="middle" x="560.91" y="-499.79" font-family="Times,serif" font-size="14.00">[^&quot;\]</text>
</g>
<!-- 26 -->
<g id="node28" class="node">
<title>26</title>
<ellipse fill="none" stroke="black" cx="798.78" cy="-416.81" rx="83.08" ry="83.08"/>
<text text-anchor="middle" x="798.78" y="-411.76" font-family="Times,serif" font-size="14.00">STRING_ESCAPE</text>
</g>
<!-- 25&#45;&gt;26 -->
<g id="edge31" class="edge">
<title>25&#45;&gt;26</title>
<path fill="none" stroke="black" d="M652.11,-400.33C658.39,-401.19 664.64,-402.03 670.7,-402.81 681.59,-404.21 693.03,-405.59 704.39,-406.91"/>
<polygon fill="black" stroke="black" points="703.86,-410.37 714.19,-408.03 704.65,-403.42 703.86,-410.37"/>
<text text-anchor="middle" x="684.2" y="-409.01" font-family="Times,serif" font-size="14.00">\</text>
</g>
<!-- 25&#45;&gt;27 -->
<g id="edge33" class="edge">
<title>25&#45;&gt;27</title>
<path fill="none" stroke="black" d="M642.75,-344.65C676.78,-326.91 715.39,-306.77 745.57,-291.03"/>
<polygon fill="black" stroke="black" points="746.87,-294.3 754.12,-286.57 743.64,-288.09 746.87,-294.3"/>
<text text-anchor="middle" x="684.2" y="-332.2" font-family="Times,serif" font-size="14.00">&quot;</text>
</g>
<!-- 26&#45;&gt;25 -->
<g id="edge32" class="edge">
<title>26&#45;&gt;25</title>
<path fill="none" stroke="black" d="M720.58,-387.39C712.93,-385.33 705.22,-383.57 697.7,-382.31 686.88,-380.5 675.51,-379.49 664.15,-379.06"/>
<polygon fill="black" stroke="black" points="664.4,-375.56 654.33,-378.84 664.25,-382.56 664.4,-375.56"/>
<text text-anchor="middle" x="684.2" y="-385.51" font-family="Times,serif" font-size="14.00">any</text>
</g>
<!-- 29 -->
<g id="node31" class="node">
<title>29</title>
<ellipse fill="none" stroke="black" cx="560.91" cy="-92.81" rx="59.03" ry="59.03"/>
<text text-anchor="middle" x="560.91" y="-87.76" font-family="Times,serif" font-size="14.00">COMMENT</text>
</g>
<!-- 28&#45;&gt;29 -->
<g id="edge36" class="edge">
<title>28&#45;&gt;29</title>
<path fill="none" stroke="black" d="M408.1,-92.81C435.26,-92.81 464.52,-92.81 490.03,-92.81"/>
<polygon fill="black" stroke="black" points="489.95,-96.31 499.95,-92.81 489.95,-89.31 489.95,-96.31"/>
<text text-anchor="middle" x="438.38" y="-96.01" font-family="Times,serif" font-size="14.00">/</text>
</g>
<!-- 29&#45;&gt;29 -->
<g id="edge37" class="edge">
<title>29&#45;&gt;29</title>
<path fill="none" stroke="black" d="M538.44,-147.85C540.38,-160.53 547.87,-169.84 560.91,-169.84 569.88,-169.84 576.22,-165.44 579.94,-158.57"/>
<polygon fill="black" stroke="black" points="583.19,-159.89 582.92,-149.29 576.53,-157.74 583.19,-159.89"/>
<text text-anchor="middle" x="560.91" y="-189.54" font-family="Times,serif" font-size="14.00">[^</text>
<text text-anchor="middle" x="560.91" y="-173.04" font-family="Times,serif" font-size="14.00">]</text>
</g>
</g>
</svg>
