<?xml version="1.0" encoding="UTF-8" standalone="no"?>
<!DOCTYPE svg PUBLIC "-//W3C//DTD SVG 1.1//EN"
 "http://www.w3.org/Graphics/SVG/1.1/DTD/svg11.dtd">
<!-- Generated by graphviz version 12.2.1 (0)
 -->
<!-- Pages: 1 -->
<svg width="204pt" height="576pt"
 viewBox="0.00 0.00 204.23 576.00" xmlns="http://www.w3.org/2000/svg" xmlns:xlink="http://www.w3.org/1999/xlink">
<g id="graph0" class="graph" transform="scale(0.211996 0.211996) rotate(0) translate(4 2713.03)">
<polygon fill="white" stroke="none" points="-4,4 -4,-2713.03 959.38,-2713.03 959.38,4 -4,4"/>
<g id="clust1" class="cluster">
<title>cluster_reserved</title>
<polygon fill="none" stroke="black" stroke-dasharray="5,2" points="828.38,-1913.03 828.38,-2701.03 955.38,-2701.03 955.38,-1913.03 828.38,-1913.03"/>
<text text-anchor="middle" x="891.88" y="-2683.73" font-family="Times,serif" font-size="14.00">Palabras Reservadas</text>
</g>
<!-- start -->
<g id="node1" class="node">
<title>start</title>
</g>
<!-- q0 -->
<g id="node2" class="node">
<title>q0</title>
<ellipse fill="none" stroke="black" cx="111.13" cy="-1242.03" rx="20.13" ry="20.13"/>
<text text-anchor="middle" x="111.13" y="-1236.98" font-family="Times,serif" font-size="14.00">q0</text>
</g>
<!-- start&#45;&gt;q0 -->
<g id="edge1" class="edge">
<title>start&#45;&gt;q0</title>
<path fill="none" stroke="black" d="M53.99,-1242.03C62.04,-1242.03 70.98,-1242.03 79.33,-1242.03"/>
<polygon fill="black" stroke="black" points="79.05,-1245.53 89.05,-1242.03 79.05,-1238.53 79.05,-1245.53"/>
</g>
<!-- id -->
<g id="node3" class="node">
<title>id</title>
<ellipse fill="none" stroke="black" cx="714.7" cy="-2051.03" rx="20.64" ry="20.64"/>
<ellipse fill="none" stroke="black" cx="714.7" cy="-2051.03" rx="24.64" ry="24.64"/>
<text text-anchor="middle" x="714.7" y="-2045.98" font-family="Times,serif" font-size="14.00">ID</text>
</g>
<!-- q0&#45;&gt;id -->
<g id="edge2" class="edge">
<title>q0&#45;&gt;id</title>
<path fill="none" stroke="black" d="M111.93,-1262.6C111.13,-1364.13 109.95,-1812.32 149.26,-1945.03 160.63,-1983.4 160.16,-2002.09 194.26,-2023.03 352.27,-2120.05 590.94,-2079.46 679.25,-2059.58"/>
<polygon fill="black" stroke="black" points="680.03,-2062.99 688.98,-2057.33 678.45,-2056.17 680.03,-2062.99"/>
<text text-anchor="middle" x="395.57" y="-2087.44" font-family="Times,serif" font-size="14.00">[a&#45;zA&#45;Z_]</text>
</g>
<!-- num_start -->
<g id="node12" class="node">
<title>num_start</title>
<ellipse fill="none" stroke="black" cx="272.23" cy="-1986.03" rx="27.81" ry="27.81"/>
<text text-anchor="middle" x="272.23" y="-1980.98" font-family="Times,serif" font-size="14.00">digit</text>
</g>
<!-- q0&#45;&gt;num_start -->
<g id="edge5" class="edge">
<title>q0&#45;&gt;num_start</title>
<path fill="none" stroke="black" d="M112.67,-1262.39C115.17,-1352.1 126.44,-1712.41 149.26,-1823.03 161.28,-1881.27 154.48,-1904.83 194.26,-1949.03 204.93,-1960.88 220.23,-1969.31 234.37,-1975.09"/>
<polygon fill="black" stroke="black" points="232.86,-1978.26 243.45,-1978.49 235.31,-1971.71 232.86,-1978.26"/>
<text text-anchor="middle" x="162.76" y="-1927.74" font-family="Times,serif" font-size="14.00">[0&#45;9]</text>
</g>
<!-- equals -->
<g id="node15" class="node">
<title>equals</title>
<ellipse fill="none" stroke="black" cx="272.23" cy="-1889.03" rx="47.26" ry="47.26"/>
<ellipse fill="none" stroke="black" cx="272.23" cy="-1889.03" rx="51.26" ry="51.26"/>
<text text-anchor="middle" x="272.23" y="-1883.98" font-family="Times,serif" font-size="14.00">EQUALS</text>
</g>
<!-- q0&#45;&gt;equals -->
<g id="edge9" class="edge">
<title>q0&#45;&gt;equals</title>
<path fill="none" stroke="black" d="M112.71,-1262.39C115.15,-1343.06 125.58,-1640.2 149.26,-1731.03 161.25,-1777.02 164.84,-1790.7 194.26,-1828.03 201.62,-1837.36 210.68,-1846.14 219.97,-1853.97"/>
<polygon fill="black" stroke="black" points="217.73,-1856.66 227.71,-1860.22 222.13,-1851.21 217.73,-1856.66"/>
<text text-anchor="middle" x="162.76" y="-1805.93" font-family="Times,serif" font-size="14.00">=</text>
</g>
<!-- plus -->
<g id="node17" class="node">
<title>plus</title>
<ellipse fill="none" stroke="black" cx="272.23" cy="-1782.03" rx="33.44" ry="33.44"/>
<ellipse fill="none" stroke="black" cx="272.23" cy="-1782.03" rx="37.44" ry="37.44"/>
<text text-anchor="middle" x="272.23" y="-1776.98" font-family="Times,serif" font-size="14.00">PLUS</text>
</g>
<!-- q0&#45;&gt;plus -->
<g id="edge11" class="edge">
<title>q0&#45;&gt;plus</title>
<path fill="none" stroke="black" d="M112.15,-1262.49C112.63,-1319.9 116.92,-1487.03 149.26,-1621.03 162.04,-1673.98 159.2,-1693.34 194.26,-1735.03 203.32,-1745.79 215.49,-1754.79 227.49,-1761.94"/>
<polygon fill="black" stroke="black" points="225.69,-1764.94 236.13,-1766.76 229.11,-1758.83 225.69,-1764.94"/>
<text text-anchor="middle" x="162.76" y="-1713.36" font-family="Times,serif" font-size="14.00">+</text>
</g>
<!-- minus -->
<g id="node18" class="node">
<title>minus</title>
<ellipse fill="none" stroke="black" cx="272.23" cy="-1681.03" rx="41.12" ry="41.12"/>
<ellipse fill="none" stroke="black" cx="272.23" cy="-1681.03" rx="45.12" ry="45.12"/>
<text text-anchor="middle" x="272.23" y="-1675.98" font-family="Times,serif" font-size="14.00">MINUS</text>
</g>
<!-- q0&#45;&gt;minus -->
<g id="edge12" class="edge">
<title>q0&#45;&gt;minus</title>
<path fill="none" stroke="black" d="M113.08,-1262.47C115.62,-1308.72 124.16,-1424.65 149.26,-1518.03 162.87,-1568.64 161.5,-1586.12 194.26,-1627.03 202.15,-1636.88 212.3,-1645.71 222.62,-1653.23"/>
<polygon fill="black" stroke="black" points="220.62,-1656.1 230.84,-1658.9 224.6,-1650.34 220.62,-1656.1"/>
<text text-anchor="middle" x="162.76" y="-1604.04" font-family="Times,serif" font-size="14.00">&#45;</text>
</g>
<!-- times -->
<g id="node19" class="node">
<title>times</title>
<ellipse fill="none" stroke="black" cx="272.23" cy="-1575.03" rx="39.07" ry="39.07"/>
<ellipse fill="none" stroke="black" cx="272.23" cy="-1575.03" rx="43.07" ry="43.07"/>
<text text-anchor="middle" x="272.23" y="-1569.98" font-family="Times,serif" font-size="14.00">TIMES</text>
</g>
<!-- q0&#45;&gt;times -->
<g id="edge13" class="edge">
<title>q0&#45;&gt;times</title>
<path fill="none" stroke="black" d="M112.92,-1262.45C115.86,-1312.34 129.64,-1442.27 194.26,-1523.03 202.44,-1533.25 213.18,-1542.23 224.03,-1549.71"/>
<polygon fill="black" stroke="black" points="221.97,-1552.54 232.26,-1555.07 225.79,-1546.68 221.97,-1552.54"/>
<text text-anchor="middle" x="162.76" y="-1500.48" font-family="Times,serif" font-size="14.00">*</text>
</g>
<!-- divide -->
<g id="node20" class="node">
<title>divide</title>
<ellipse fill="none" stroke="black" cx="272.23" cy="-1467.03" rx="42.65" ry="42.65"/>
<ellipse fill="none" stroke="black" cx="272.23" cy="-1467.03" rx="46.65" ry="46.65"/>
<text text-anchor="middle" x="272.23" y="-1461.98" font-family="Times,serif" font-size="14.00">DIVIDE</text>
</g>
<!-- q0&#45;&gt;divide -->
<g id="edge14" class="edge">
<title>q0&#45;&gt;divide</title>
<path fill="none" stroke="black" d="M117.27,-1261.57C127.11,-1295.67 151.49,-1366.62 194.26,-1411.03 202.86,-1419.96 213.03,-1428.46 223.12,-1436.03"/>
<polygon fill="black" stroke="black" points="220.93,-1438.76 231.08,-1441.81 225.04,-1433.1 220.93,-1438.76"/>
<text text-anchor="middle" x="162.76" y="-1390.74" font-family="Times,serif" font-size="14.00">/</text>
</g>
<!-- gt -->
<g id="node21" class="node">
<title>gt</title>
<ellipse fill="none" stroke="black" cx="272.23" cy="-1375.03" rx="23.2" ry="23.2"/>
<ellipse fill="none" stroke="black" cx="272.23" cy="-1375.03" rx="27.2" ry="27.2"/>
<text text-anchor="middle" x="272.23" y="-1369.98" font-family="Times,serif" font-size="14.00">GT</text>
</g>
<!-- q0&#45;&gt;gt -->
<g id="edge15" class="edge">
<title>q0&#45;&gt;gt</title>
<path fill="none" stroke="black" d="M122.61,-1259.04C136.56,-1280.41 163.13,-1316.94 194.26,-1339.03 206.89,-1347.99 222.1,-1355.65 235.65,-1361.57"/>
<polygon fill="black" stroke="black" points="234.11,-1364.72 244.69,-1365.36 236.81,-1358.27 234.11,-1364.72"/>
<text text-anchor="middle" x="162.76" y="-1326.91" font-family="Times,serif" font-size="14.00">&gt;</text>
</g>
<!-- lt -->
<g id="node23" class="node">
<title>lt</title>
<ellipse fill="none" stroke="black" cx="272.23" cy="-1304.03" rx="22.18" ry="22.18"/>
<ellipse fill="none" stroke="black" cx="272.23" cy="-1304.03" rx="26.18" ry="26.18"/>
<text text-anchor="middle" x="272.23" y="-1298.98" font-family="Times,serif" font-size="14.00">LT</text>
</g>
<!-- q0&#45;&gt;lt -->
<g id="edge17" class="edge">
<title>q0&#45;&gt;lt</title>
<path fill="none" stroke="black" d="M128.85,-1251.78C135.14,-1255.25 142.42,-1259.03 149.26,-1262.03 177.77,-1274.52 211.28,-1285.83 235.95,-1293.55"/>
<polygon fill="black" stroke="black" points="234.92,-1296.9 245.5,-1296.5 236.98,-1290.21 234.92,-1296.9"/>
<text text-anchor="middle" x="162.76" y="-1275.9" font-family="Times,serif" font-size="14.00">&lt;</text>
</g>
<!-- not -->
<g id="node25" class="node">
<title>not</title>
<ellipse fill="none" stroke="black" cx="272.23" cy="-1242.03" rx="18" ry="18"/>
<text text-anchor="middle" x="272.23" y="-1236.98" font-family="Times,serif" font-size="14.00">!</text>
</g>
<!-- q0&#45;&gt;not -->
<g id="edge19" class="edge">
<title>q0&#45;&gt;not</title>
<path fill="none" stroke="black" d="M131.64,-1242.03C159.45,-1242.03 210.67,-1242.03 242.73,-1242.03"/>
<polygon fill="black" stroke="black" points="242.48,-1245.53 252.48,-1242.03 242.48,-1238.53 242.48,-1245.53"/>
<text text-anchor="middle" x="162.76" y="-1245.23" font-family="Times,serif" font-size="14.00">!</text>
</g>
<!-- lparen -->
<g id="node27" class="node">
<title>lparen</title>
<ellipse fill="none" stroke="black" cx="272.23" cy="-1155.03" rx="46.75" ry="46.75"/>
<ellipse fill="none" stroke="black" cx="272.23" cy="-1155.03" rx="50.75" ry="50.75"/>
<text text-anchor="middle" x="272.23" y="-1149.98" font-family="Times,serif" font-size="14.00">LPAREN</text>
</g>
<!-- q0&#45;&gt;lparen -->
<g id="edge21" class="edge">
<title>q0&#45;&gt;lparen</title>
<path fill="none" stroke="black" d="M129.13,-1232.62C135.45,-1229.13 142.68,-1225.14 149.26,-1221.53 171.43,-1209.37 195.9,-1196.01 217.06,-1184.48"/>
<polygon fill="black" stroke="black" points="218.73,-1187.56 225.83,-1179.71 215.38,-1181.41 218.73,-1187.56"/>
<text text-anchor="middle" x="162.76" y="-1224.73" font-family="Times,serif" font-size="14.00">(</text>
</g>
<!-- rparen -->
<g id="node28" class="node">
<title>rparen</title>
<ellipse fill="none" stroke="black" cx="272.23" cy="-1035.03" rx="47.26" ry="47.26"/>
<ellipse fill="none" stroke="black" cx="272.23" cy="-1035.03" rx="51.26" ry="51.26"/>
<text text-anchor="middle" x="272.23" y="-1029.98" font-family="Times,serif" font-size="14.00">RPAREN</text>
</g>
<!-- q0&#45;&gt;rparen -->
<g id="edge22" class="edge">
<title>q0&#45;&gt;rparen</title>
<path fill="none" stroke="black" d="M119.66,-1223.37C132.13,-1193.93 159.24,-1135.85 194.26,-1095.03 201.87,-1086.16 210.96,-1077.72 220.19,-1070.11"/>
<polygon fill="black" stroke="black" points="222.19,-1072.99 227.85,-1064.03 217.84,-1067.51 222.19,-1072.99"/>
<text text-anchor="middle" x="162.76" y="-1162.89" font-family="Times,serif" font-size="14.00">)</text>
</g>
<!-- lbrace -->
<g id="node29" class="node">
<title>lbrace</title>
<ellipse fill="none" stroke="black" cx="272.23" cy="-914.03" rx="47.26" ry="47.26"/>
<ellipse fill="none" stroke="black" cx="272.23" cy="-914.03" rx="51.26" ry="51.26"/>
<text text-anchor="middle" x="272.23" y="-908.98" font-family="Times,serif" font-size="14.00">LBRACE</text>
</g>
<!-- q0&#45;&gt;lbrace -->
<g id="edge23" class="edge">
<title>q0&#45;&gt;lbrace</title>
<path fill="none" stroke="black" d="M113.95,-1221.66C119.08,-1174.22 137.19,-1054.35 194.26,-975.03 201.35,-965.17 210.45,-956.08 219.9,-948.09"/>
<polygon fill="black" stroke="black" points="221.84,-951.02 227.44,-942.02 217.45,-945.56 221.84,-951.02"/>
<text text-anchor="middle" x="162.76" y="-1066.04" font-family="Times,serif" font-size="14.00">{</text>
</g>
<!-- rbrace -->
<g id="node30" class="node">
<title>rbrace</title>
<ellipse fill="none" stroke="black" cx="272.23" cy="-793.03" rx="47.77" ry="47.77"/>
<ellipse fill="none" stroke="black" cx="272.23" cy="-793.03" rx="51.77" ry="51.77"/>
<text text-anchor="middle" x="272.23" y="-787.98" font-family="Times,serif" font-size="14.00">RBRACE</text>
</g>
<!-- q0&#45;&gt;rbrace -->
<g id="edge24" class="edge">
<title>q0&#45;&gt;rbrace</title>
<path fill="none" stroke="black" d="M113.82,-1221.58C117.71,-1177.94 128.58,-1072.6 149.26,-986.53 163.8,-926.06 158.43,-904.86 194.26,-854.03 201.11,-844.31 209.94,-835.36 219.16,-827.49"/>
<polygon fill="black" stroke="black" points="221.32,-830.24 226.89,-821.22 216.92,-824.8 221.32,-830.24"/>
<text text-anchor="middle" x="162.76" y="-989.73" font-family="Times,serif" font-size="14.00">}</text>
</g>
<!-- semicolon -->
<g id="node31" class="node">
<title>semicolon</title>
<ellipse fill="none" stroke="black" cx="272.23" cy="-654.03" rx="65.17" ry="65.17"/>
<ellipse fill="none" stroke="black" cx="272.23" cy="-654.03" rx="69.17" ry="69.17"/>
<text text-anchor="middle" x="272.23" y="-648.98" font-family="Times,serif" font-size="14.00">SEMICOLON</text>
</g>
<!-- q0&#45;&gt;semicolon -->
<g id="edge25" class="edge">
<title>q0&#45;&gt;semicolon</title>
<path fill="none" stroke="black" d="M112.48,-1221.67C113.79,-1164.53 120.06,-998.06 149.26,-863.53 162.37,-803.16 161.75,-784.55 194.26,-732.03 199.48,-723.59 205.77,-715.36 212.47,-707.59"/>
<polygon fill="black" stroke="black" points="214.78,-710.26 218.86,-700.49 209.57,-705.58 214.78,-710.26"/>
<text text-anchor="middle" x="162.76" y="-866.73" font-family="Times,serif" font-size="14.00">;</text>
</g>
<!-- comma -->
<g id="node32" class="node">
<title>comma</title>
<ellipse fill="none" stroke="black" cx="272.23" cy="-515.03" rx="47.77" ry="47.77"/>
<ellipse fill="none" stroke="black" cx="272.23" cy="-515.03" rx="51.77" ry="51.77"/>
<text text-anchor="middle" x="272.23" y="-509.98" font-family="Times,serif" font-size="14.00">COMMA</text>
</g>
<!-- q0&#45;&gt;comma -->
<g id="edge26" class="edge">
<title>q0&#45;&gt;comma</title>
<path fill="none" stroke="black" d="M112.3,-1221.49C113.14,-1153.19 118.25,-927.7 149.26,-744.53 162.2,-668.1 151.73,-640.83 194.26,-576.03 200.78,-566.09 209.46,-557.04 218.64,-549.13"/>
<polygon fill="black" stroke="black" points="220.8,-551.89 226.36,-542.86 216.39,-546.45 220.8,-551.89"/>
<text text-anchor="middle" x="162.76" y="-747.73" font-family="Times,serif" font-size="14.00">,</text>
</g>
<!-- ampersand -->
<g id="node33" class="node">
<title>ampersand</title>
<ellipse fill="none" stroke="black" cx="272.23" cy="-373.03" rx="68.24" ry="68.24"/>
<ellipse fill="none" stroke="black" cx="272.23" cy="-373.03" rx="72.24" ry="72.24"/>
<text text-anchor="middle" x="272.23" y="-367.98" font-family="Times,serif" font-size="14.00">AMPERSAND</text>
</g>
<!-- q0&#45;&gt;ampersand -->
<g id="edge27" class="edge">
<title>q0&#45;&gt;ampersand</title>
<path fill="none" stroke="black" d="M112.55,-1221.74C114.65,-1125.39 124.91,-713.52 149.26,-587.53 161.14,-526.05 161.94,-507.65 194.26,-454.03 199.16,-445.91 204.99,-437.94 211.22,-430.35"/>
<polygon fill="black" stroke="black" points="213.85,-432.66 217.7,-422.79 208.54,-428.11 213.85,-432.66"/>
<text text-anchor="middle" x="162.76" y="-590.73" font-family="Times,serif" font-size="14.00">&amp;</text>
</g>
<!-- str_start -->
<g id="node34" class="node">
<title>str_start</title>
<ellipse fill="none" stroke="black" cx="272.23" cy="-205.03" rx="77.97" ry="77.97"/>
<text text-anchor="middle" x="272.23" y="-199.98" font-family="Times,serif" font-size="14.00">STRING_START</text>
</g>
<!-- q0&#45;&gt;str_start -->
<g id="edge28" class="edge">
<title>q0&#45;&gt;str_start</title>
<path fill="none" stroke="black" d="M112.55,-1221.71C114.81,-1115.07 126.41,-619.28 149.26,-467.53 161.25,-387.9 156.53,-363.17 194.26,-292.03 198.54,-283.96 203.71,-276.03 209.33,-268.43"/>
<polygon fill="black" stroke="black" points="211.82,-270.92 215.18,-260.87 206.29,-266.64 211.82,-270.92"/>
<text text-anchor="middle" x="162.76" y="-470.73" font-family="Times,serif" font-size="14.00">&quot;</text>
</g>
<!-- comment_start -->
<g id="node38" class="node">
<title>comment_start</title>
<ellipse fill="none" stroke="black" cx="272.23" cy="-83.03" rx="18" ry="18"/>
<text text-anchor="middle" x="272.23" y="-77.98" font-family="Times,serif" font-size="14.00">/</text>
</g>
<!-- q0&#45;&gt;comment_start -->
<g id="edge35" class="edge">
<title>q0&#45;&gt;comment_start</title>
<path fill="none" stroke="black" d="M112.41,-1221.62C114.14,-1102.37 124.08,-494.55 149.26,-309.53 161.06,-222.9 138.79,-185.6 194.26,-118.03 206.6,-103 226.77,-94.16 243.37,-89.12"/>
<polygon fill="black" stroke="black" points="243.94,-92.59 252.69,-86.6 242.12,-85.83 243.94,-92.59"/>
<text text-anchor="middle" x="162.76" y="-312.73" font-family="Times,serif" font-size="14.00">/</text>
</g>
<!-- id&#45;&gt;id -->
<g id="edge3" class="edge">
<title>id&#45;&gt;id</title>
<path fill="none" stroke="black" d="M702.18,-2072.53C700.26,-2083.65 704.43,-2093.67 714.7,-2093.67 721.28,-2093.67 725.35,-2089.56 726.93,-2083.68"/>
<polygon fill="black" stroke="black" points="730.42,-2084.13 727.18,-2074.04 723.42,-2083.95 730.42,-2084.13"/>
<text text-anchor="middle" x="714.7" y="-2096.87" font-family="Times,serif" font-size="14.00">[a&#45;zA&#45;Z0&#45;9_]</text>
</g>
<!-- int -->
<g id="node4" class="node">
<title>int</title>
<ellipse fill="none" stroke="black" cx="891.38" cy="-2057.03" rx="26.27" ry="26.27"/>
<ellipse fill="none" stroke="black" cx="891.38" cy="-2057.03" rx="30.27" ry="30.27"/>
<text text-anchor="middle" x="891.38" y="-2051.98" font-family="Times,serif" font-size="14.00">INT</text>
</g>
<!-- id&#45;&gt;int -->
<g id="edge4" class="edge">
<title>id&#45;&gt;int</title>
<path fill="none" stroke="black" stroke-dasharray="5,2" d="M739.62,-2051.85C767.87,-2052.82 815.33,-2054.45 849.46,-2055.62"/>
<polygon fill="black" stroke="black" points="849.3,-2059.12 859.41,-2055.96 849.54,-2052.12 849.3,-2059.12"/>
<text text-anchor="middle" x="799.63" y="-2057.59" font-family="Times,serif" font-size="14.00">lookup</text>
</g>
<!-- float -->
<g id="node5" class="node">
<title>float</title>
<ellipse fill="none" stroke="black" cx="891.38" cy="-1965.03" rx="39.58" ry="39.58"/>
<ellipse fill="none" stroke="black" cx="891.38" cy="-1965.03" rx="43.58" ry="43.58"/>
<text text-anchor="middle" x="891.38" y="-1959.98" font-family="Times,serif" font-size="14.00">FLOAT</text>
</g>
<!-- main -->
<g id="node6" class="node">
<title>main</title>
<ellipse fill="none" stroke="black" cx="891.38" cy="-2145.03" rx="36" ry="36"/>
<ellipse fill="none" stroke="black" cx="891.38" cy="-2145.03" rx="40" ry="40"/>
<text text-anchor="middle" x="891.38" y="-2139.98" font-family="Times,serif" font-size="14.00">MAIN</text>
</g>
<!-- printf -->
<g id="node7" class="node">
<title>printf</title>
<ellipse fill="none" stroke="black" cx="891.38" cy="-2250.03" rx="42.65" ry="42.65"/>
<ellipse fill="none" stroke="black" cx="891.38" cy="-2250.03" rx="46.65" ry="46.65"/>
<text text-anchor="middle" x="891.38" y="-2244.98" font-family="Times,serif" font-size="14.00">PRINTF</text>
</g>
<!-- scanf -->
<g id="node8" class="node">
<title>scanf</title>
<ellipse fill="none" stroke="black" cx="891.38" cy="-2359.03" rx="40.6" ry="40.6"/>
<ellipse fill="none" stroke="black" cx="891.38" cy="-2359.03" rx="44.6" ry="44.6"/>
<text text-anchor="middle" x="891.38" y="-2353.98" font-family="Times,serif" font-size="14.00">SCANF</text>
</g>
<!-- if -->
<g id="node9" class="node">
<title>if</title>
<ellipse fill="none" stroke="black" cx="891.38" cy="-2445.03" rx="19.11" ry="19.11"/>
<ellipse fill="none" stroke="black" cx="891.38" cy="-2445.03" rx="23.11" ry="23.11"/>
<text text-anchor="middle" x="891.38" y="-2439.98" font-family="Times,serif" font-size="14.00">IF</text>
</g>
<!-- else -->
<g id="node10" class="node">
<title>else</title>
<ellipse fill="none" stroke="black" cx="891.38" cy="-2523.03" rx="32.93" ry="32.93"/>
<ellipse fill="none" stroke="black" cx="891.38" cy="-2523.03" rx="36.93" ry="36.93"/>
<text text-anchor="middle" x="891.38" y="-2517.98" font-family="Times,serif" font-size="14.00">ELSE</text>
</g>
<!-- while -->
<g id="node11" class="node">
<title>while</title>
<ellipse fill="none" stroke="black" cx="891.38" cy="-2623.03" rx="41.12" ry="41.12"/>
<ellipse fill="none" stroke="black" cx="891.38" cy="-2623.03" rx="45.12" ry="45.12"/>
<text text-anchor="middle" x="891.38" y="-2617.98" font-family="Times,serif" font-size="14.00">WHILE</text>
</g>
<!-- integer -->
<g id="node13" class="node">
<title>integer</title>
<ellipse fill="none" stroke="black" cx="532.73" cy="-1984.03" rx="26.27" ry="26.27"/>
<ellipse fill="none" stroke="black" cx="532.73" cy="-1984.03" rx="30.27" ry="30.27"/>
<text text-anchor="middle" x="532.73" y="-1978.98" font-family="Times,serif" font-size="14.00">INT</text>
</g>
<!-- num_start&#45;&gt;integer -->
<g id="edge6" class="edge">
<title>num_start&#45;&gt;integer</title>
<path fill="none" stroke="black" d="M300.4,-1985.82C345.84,-1985.47 437.47,-1984.76 490.76,-1984.35"/>
<polygon fill="black" stroke="black" points="490.67,-1987.85 500.64,-1984.27 490.61,-1980.85 490.67,-1987.85"/>
<text text-anchor="middle" x="395.57" y="-1988.47" font-family="Times,serif" font-size="14.00">[0&#45;9]*</text>
</g>
<!-- dot -->
<g id="node14" class="node">
<title>dot</title>
<ellipse fill="none" stroke="black" cx="714.7" cy="-1975.03" rx="18" ry="18"/>
<text text-anchor="middle" x="714.7" y="-1969.98" font-family="Times,serif" font-size="14.00">.</text>
</g>
<!-- integer&#45;&gt;dot -->
<g id="edge7" class="edge">
<title>integer&#45;&gt;dot</title>
<path fill="none" stroke="black" d="M563.45,-1982.54C597.23,-1980.85 652,-1978.11 685.25,-1976.45"/>
<polygon fill="black" stroke="black" points="685.13,-1979.96 694.94,-1975.97 684.78,-1972.97 685.13,-1979.96"/>
<text text-anchor="middle" x="645.51" y="-1981.66" font-family="Times,serif" font-size="14.00">.</text>
</g>
<!-- dot&#45;&gt;float -->
<g id="edge8" class="edge">
<title>dot&#45;&gt;float</title>
<path fill="none" stroke="black" d="M733.09,-1974.03C756.99,-1972.66 801.08,-1970.14 836.51,-1968.11"/>
<polygon fill="black" stroke="black" points="836.37,-1971.63 846.16,-1967.56 835.97,-1964.64 836.37,-1971.63"/>
<text text-anchor="middle" x="799.63" y="-1974.42" font-family="Times,serif" font-size="14.00">[0&#45;9]+</text>
</g>
<!-- eq -->
<g id="node16" class="node">
<title>eq</title>
<ellipse fill="none" stroke="black" cx="532.73" cy="-1889.03" rx="23.2" ry="23.2"/>
<ellipse fill="none" stroke="black" cx="532.73" cy="-1889.03" rx="27.2" ry="27.2"/>
<text text-anchor="middle" x="532.73" y="-1883.98" font-family="Times,serif" font-size="14.00">EQ</text>
</g>
<!-- equals&#45;&gt;eq -->
<g id="edge10" class="edge">
<title>equals&#45;&gt;eq</title>
<path fill="none" stroke="black" d="M323.68,-1889.03C373.59,-1889.03 448.83,-1889.03 493.84,-1889.03"/>
<polygon fill="black" stroke="black" points="493.63,-1892.53 503.63,-1889.03 493.63,-1885.53 493.63,-1892.53"/>
<text text-anchor="middle" x="395.57" y="-1892.23" font-family="Times,serif" font-size="14.00">=</text>
</g>
<!-- ge -->
<g id="node22" class="node">
<title>ge</title>
<ellipse fill="none" stroke="black" cx="532.73" cy="-1375.03" rx="23.2" ry="23.2"/>
<ellipse fill="none" stroke="black" cx="532.73" cy="-1375.03" rx="27.2" ry="27.2"/>
<text text-anchor="middle" x="532.73" y="-1369.98" font-family="Times,serif" font-size="14.00">GE</text>
</g>
<!-- gt&#45;&gt;ge -->
<g id="edge16" class="edge">
<title>gt&#45;&gt;ge</title>
<path fill="none" stroke="black" d="M299.92,-1375.03C346.09,-1375.03 440.99,-1375.03 493.93,-1375.03"/>
<polygon fill="black" stroke="black" points="493.67,-1378.53 503.67,-1375.03 493.67,-1371.53 493.67,-1378.53"/>
<text text-anchor="middle" x="395.57" y="-1378.23" font-family="Times,serif" font-size="14.00">=</text>
</g>
<!-- le -->
<g id="node24" class="node">
<title>le</title>
<ellipse fill="none" stroke="black" cx="532.73" cy="-1304.03" rx="22.18" ry="22.18"/>
<ellipse fill="none" stroke="black" cx="532.73" cy="-1304.03" rx="26.18" ry="26.18"/>
<text text-anchor="middle" x="532.73" y="-1298.98" font-family="Times,serif" font-size="14.00">LE</text>
</g>
<!-- lt&#45;&gt;le -->
<g id="edge18" class="edge">
<title>lt&#45;&gt;le</title>
<path fill="none" stroke="black" d="M298.48,-1304.03C344.43,-1304.03 441.84,-1304.03 495.09,-1304.03"/>
<polygon fill="black" stroke="black" points="494.85,-1307.53 504.85,-1304.03 494.85,-1300.53 494.85,-1307.53"/>
<text text-anchor="middle" x="395.57" y="-1307.23" font-family="Times,serif" font-size="14.00">=</text>
</g>
<!-- ne -->
<g id="node26" class="node">
<title>ne</title>
<ellipse fill="none" stroke="black" cx="532.73" cy="-1233.03" rx="23.2" ry="23.2"/>
<ellipse fill="none" stroke="black" cx="532.73" cy="-1233.03" rx="27.2" ry="27.2"/>
<text text-anchor="middle" x="532.73" y="-1227.98" font-family="Times,serif" font-size="14.00">NE</text>
</g>
<!-- not&#45;&gt;ne -->
<g id="edge20" class="edge">
<title>not&#45;&gt;ne</title>
<path fill="none" stroke="black" d="M290.59,-1241.42C331.91,-1239.99 436.89,-1236.33 493.74,-1234.35"/>
<polygon fill="black" stroke="black" points="493.72,-1237.85 503.59,-1234.01 493.48,-1230.86 493.72,-1237.85"/>
<text text-anchor="middle" x="395.57" y="-1241.8" font-family="Times,serif" font-size="14.00">=</text>
</g>
<!-- str_content -->
<g id="node35" class="node">
<title>str_content</title>
<ellipse fill="none" stroke="black" cx="532.73" cy="-331.03" rx="91.78" ry="91.78"/>
<text text-anchor="middle" x="532.73" y="-325.98" font-family="Times,serif" font-size="14.00">STRING_CONTENT</text>
</g>
<!-- str_start&#45;&gt;str_content -->
<g id="edge29" class="edge">
<title>str_start&#45;&gt;str_content</title>
<path fill="none" stroke="black" d="M342.84,-238.96C372.53,-253.43 407.59,-270.52 439.39,-286.02"/>
<polygon fill="black" stroke="black" points="437.71,-289.1 448.23,-290.33 440.78,-282.8 437.71,-289.1"/>
<text text-anchor="middle" x="395.57" y="-278.77" font-family="Times,serif" font-size="14.00">[^&quot;\]</text>
</g>
<!-- string -->
<g id="node37" class="node">
<title>string</title>
<ellipse fill="none" stroke="black" cx="714.7" cy="-229.03" rx="44.19" ry="44.19"/>
<ellipse fill="none" stroke="black" cx="714.7" cy="-229.03" rx="48.19" ry="48.19"/>
<text text-anchor="middle" x="714.7" y="-223.98" font-family="Times,serif" font-size="14.00">STRING</text>
</g>
<!-- str_start&#45;&gt;string -->
<g id="edge34" class="edge">
<title>str_start&#45;&gt;string</title>
<path fill="none" stroke="black" d="M350.52,-203.63C421.83,-203.11 530.56,-204.28 624.51,-213.53 634.73,-214.53 645.55,-216.04 655.99,-217.72"/>
<polygon fill="black" stroke="black" points="655.19,-221.13 665.63,-219.34 656.35,-214.23 655.19,-221.13"/>
<text text-anchor="middle" x="532.73" y="-216.73" font-family="Times,serif" font-size="14.00">&quot;</text>
</g>
<!-- str_content&#45;&gt;str_content -->
<g id="edge30" class="edge">
<title>str_content&#45;&gt;str_content</title>
<path fill="none" stroke="black" d="M514.08,-421.05C517.26,-432.93 523.48,-440.81 532.73,-440.81 538.94,-440.81 543.79,-437.26 547.26,-431.32"/>
<polygon fill="black" stroke="black" points="550.34,-433.04 550.81,-422.46 543.85,-430.44 550.34,-433.04"/>
<text text-anchor="middle" x="532.73" y="-444.01" font-family="Times,serif" font-size="14.00">[^&quot;\]</text>
</g>
<!-- str_escape -->
<g id="node36" class="node">
<title>str_escape</title>
<ellipse fill="none" stroke="black" cx="714.7" cy="-344.03" rx="45.21" ry="45.21"/>
<text text-anchor="middle" x="714.7" y="-338.98" font-family="Times,serif" font-size="14.00">ESCAPE</text>
</g>
<!-- str_content&#45;&gt;str_escape -->
<g id="edge31" class="edge">
<title>str_content&#45;&gt;str_escape</title>
<path fill="none" stroke="black" d="M624.77,-337.6C636.16,-338.43 647.54,-339.25 658.16,-340.02"/>
<polygon fill="black" stroke="black" points="657.62,-343.49 667.84,-340.72 658.12,-336.5 657.62,-343.49"/>
<text text-anchor="middle" x="645.51" y="-342.28" font-family="Times,serif" font-size="14.00">\</text>
</g>
<!-- str_content&#45;&gt;string -->
<g id="edge33" class="edge">
<title>str_content&#45;&gt;string</title>
<path fill="none" stroke="black" d="M613.19,-285.99C629.87,-276.54 647.05,-266.8 662.37,-258.12"/>
<polygon fill="black" stroke="black" points="663.86,-261.3 670.84,-253.32 660.41,-255.21 663.86,-261.3"/>
<text text-anchor="middle" x="645.51" y="-271.09" font-family="Times,serif" font-size="14.00">&quot;</text>
</g>
<!-- str_escape&#45;&gt;str_content -->
<g id="edge32" class="edge">
<title>str_escape&#45;&gt;str_content</title>
<path fill="none" stroke="black" d="M673,-325.45C665.04,-322.58 656.63,-320.06 648.51,-318.53 644.09,-317.7 639.57,-317.1 634.99,-316.72"/>
<polygon fill="black" stroke="black" points="635.2,-313.22 625.04,-316.24 634.86,-320.22 635.2,-313.22"/>
<text text-anchor="middle" x="645.51" y="-321.73" font-family="Times,serif" font-size="14.00">.</text>
</g>
<!-- comment -->
<g id="node39" class="node">
<title>comment</title>
<ellipse fill="none" stroke="black" cx="532.73" cy="-59.03" rx="59.03" ry="59.03"/>
<text text-anchor="middle" x="532.73" y="-53.98" font-family="Times,serif" font-size="14.00">COMMENT</text>
</g>
<!-- comment_start&#45;&gt;comment -->
<g id="edge36" class="edge">
<title>comment_start&#45;&gt;comment</title>
<path fill="none" stroke="black" d="M290.59,-81.42C325.08,-78.21 403.92,-70.89 462.1,-65.49"/>
<polygon fill="black" stroke="black" points="462.31,-68.99 471.94,-64.58 461.66,-62.02 462.31,-68.99"/>
<text text-anchor="middle" x="395.57" y="-77.08" font-family="Times,serif" font-size="14.00">/</text>
</g>
<!-- comment&#45;&gt;comment -->
<g id="edge37" class="edge">
<title>comment&#45;&gt;comment</title>
<path fill="none" stroke="black" d="M512.15,-114.77C514.08,-127.09 520.94,-136.06 532.73,-136.06 540.65,-136.06 546.34,-132.01 549.81,-125.61"/>
<polygon fill="black" stroke="black" points="553.11,-126.8 552.84,-116.21 546.44,-124.65 553.11,-126.8"/>
<text text-anchor="middle" x="532.73" y="-155.76" font-family="Times,serif" font-size="14.00">[^</text>
<text text-anchor="middle" x="532.73" y="-139.26" font-family="Times,serif" font-size="14.00">]</text>
</g>
</g>
</svg>
